<svg xmlns="http://www.w3.org/2000/svg" xmlns:xlink="http://www.w3.org/1999/xlink" width="500" zoomAndPan="magnify" viewBox="0 0 375 187.499995" height="250" preserveAspectRatio="xMidYMid meet" version="1.0"><defs><g/><clipPath id="d35587163d"><path d="M 256.953125 17.652344 L 300.335938 17.652344 L 300.335938 61.035156 L 256.953125 61.035156 Z M 256.953125 17.652344 " clip-rule="nonzero"/></clipPath><clipPath id="a9c7902625"><path d="M 108.394531 17.425781 L 322.324219 17.425781 L 322.324219 104.195312 L 108.394531 104.195312 Z M 108.394531 17.425781 " clip-rule="nonzero"/></clipPath><clipPath id="eed31cbac0"><path d="M 250.429688 45.425781 L 238.738281 56.132812 L 284.265625 97.164062 L 277.863281 104.207031 L 231.6875 62.59375 L 216.980469 76.0625 L 240.394531 97.164062 L 233.996094 104.207031 L 200.304688 73.847656 L 167.183594 104.183594 L 160.726562 97.191406 L 200.253906 60.992188 L 209.875 69.660156 L 224.585938 56.191406 L 195.839844 30.285156 L 115.15625 104.183594 L 108.699219 97.191406 L 195.785156 17.425781 L 231.636719 49.734375 L 250.378906 32.566406 L 322.035156 97.15625 L 315.632812 104.199219 Z M 250.429688 45.425781 " clip-rule="nonzero"/></clipPath><linearGradient x1="0.00000181239" gradientTransform="matrix(0.484051, 0, 0, 0.482048, 108.699075, 17.425472)" y1="90.014" x2="440.730977" gradientUnits="userSpaceOnUse" y2="90.014" id="3f86f369df"><stop stop-opacity="1" stop-color="rgb(90.59906%, 83.099365%, 61.999512%)" offset="0"/><stop stop-opacity="1" stop-color="rgb(90.544128%, 82.998657%, 61.799622%)" offset="0.00390625"/><stop stop-opacity="1" stop-color="rgb(90.489197%, 82.897949%, 61.601257%)" offset="0.0078125"/><stop stop-opacity="1" stop-color="rgb(90.434265%, 82.797241%, 61.401367%)" offset="0.0117188"/><stop stop-opacity="1" stop-color="rgb(90.379333%, 82.696533%, 61.203003%)" offset="0.015625"/><stop stop-opacity="1" stop-color="rgb(90.324402%, 82.595825%, 61.003113%)" offset="0.0195313"/><stop stop-opacity="1" stop-color="rgb(90.26947%, 82.495117%, 60.803223%)" offset="0.0234375"/><stop stop-opacity="1" stop-color="rgb(90.213013%, 82.394409%, 60.603333%)" offset="0.0273438"/><stop stop-opacity="1" stop-color="rgb(90.158081%, 82.293701%, 60.404968%)" offset="0.03125"/><stop stop-opacity="1" stop-color="rgb(90.103149%, 82.191467%, 60.205078%)" offset="0.0351562"/><stop stop-opacity="1" stop-color="rgb(90.048218%, 82.090759%, 60.006714%)" offset="0.0390625"/><stop stop-opacity="1" stop-color="rgb(89.993286%, 81.990051%, 59.806824%)" offset="0.0429687"/><stop stop-opacity="1" stop-color="rgb(89.938354%, 81.889343%, 59.608459%)" offset="0.046875"/><stop stop-opacity="1" stop-color="rgb(89.883423%, 81.788635%, 59.408569%)" offset="0.0507813"/><stop stop-opacity="1" stop-color="rgb(89.828491%, 81.687927%, 59.210205%)" offset="0.0546875"/><stop stop-opacity="1" stop-color="rgb(89.77356%, 81.587219%, 59.010315%)" offset="0.0585938"/><stop stop-opacity="1" stop-color="rgb(89.718628%, 81.486511%, 58.811951%)" offset="0.0625"/><stop stop-opacity="1" stop-color="rgb(89.66217%, 81.385803%, 58.612061%)" offset="0.0664062"/><stop stop-opacity="1" stop-color="rgb(89.607239%, 81.285095%, 58.413696%)" offset="0.0703125"/><stop stop-opacity="1" stop-color="rgb(89.552307%, 81.184387%, 58.213806%)" offset="0.0742188"/><stop stop-opacity="1" stop-color="rgb(89.497375%, 81.083679%, 58.015442%)" offset="0.078125"/><stop stop-opacity="1" stop-color="rgb(89.442444%, 80.982971%, 57.815552%)" offset="0.0820312"/><stop stop-opacity="1" stop-color="rgb(89.387512%, 80.882263%, 57.615662%)" offset="0.0859375"/><stop stop-opacity="1" stop-color="rgb(89.332581%, 80.781555%, 57.415771%)" offset="0.0898438"/><stop stop-opacity="1" stop-color="rgb(89.277649%, 80.680847%, 57.217407%)" offset="0.09375"/><stop stop-opacity="1" stop-color="rgb(89.222717%, 80.580139%, 57.017517%)" offset="0.0976562"/><stop stop-opacity="1" stop-color="rgb(89.167786%, 80.479431%, 56.819153%)" offset="0.101562"/><stop stop-opacity="1" stop-color="rgb(89.111328%, 80.378723%, 56.619263%)" offset="0.105469"/><stop stop-opacity="1" stop-color="rgb(89.056396%, 80.278015%, 56.420898%)" offset="0.109375"/><stop stop-opacity="1" stop-color="rgb(89.001465%, 80.175781%, 56.221008%)" offset="0.113281"/><stop stop-opacity="1" stop-color="rgb(88.946533%, 80.075073%, 56.022644%)" offset="0.117187"/><stop stop-opacity="1" stop-color="rgb(88.891602%, 79.974365%, 55.822754%)" offset="0.121094"/><stop stop-opacity="1" stop-color="rgb(88.83667%, 79.873657%, 55.62439%)" offset="0.125"/><stop stop-opacity="1" stop-color="rgb(88.781738%, 79.772949%, 55.4245%)" offset="0.128906"/><stop stop-opacity="1" stop-color="rgb(88.726807%, 79.672241%, 55.226135%)" offset="0.132812"/><stop stop-opacity="1" stop-color="rgb(88.671875%, 79.571533%, 55.026245%)" offset="0.136719"/><stop stop-opacity="1" stop-color="rgb(88.616943%, 79.470825%, 54.827881%)" offset="0.140625"/><stop stop-opacity="1" stop-color="rgb(88.560486%, 79.370117%, 54.627991%)" offset="0.144531"/><stop stop-opacity="1" stop-color="rgb(88.505554%, 79.269409%, 54.429626%)" offset="0.148438"/><stop stop-opacity="1" stop-color="rgb(88.450623%, 79.168701%, 54.229736%)" offset="0.152344"/><stop stop-opacity="1" stop-color="rgb(88.395691%, 79.067993%, 54.029846%)" offset="0.15625"/><stop stop-opacity="1" stop-color="rgb(88.340759%, 78.967285%, 53.829956%)" offset="0.160156"/><stop stop-opacity="1" stop-color="rgb(88.285828%, 78.866577%, 53.631592%)" offset="0.164062"/><stop stop-opacity="1" stop-color="rgb(88.230896%, 78.765869%, 53.431702%)" offset="0.167969"/><stop stop-opacity="1" stop-color="rgb(88.175964%, 78.665161%, 53.233337%)" offset="0.171875"/><stop stop-opacity="1" stop-color="rgb(88.121033%, 78.564453%, 53.033447%)" offset="0.175781"/><stop stop-opacity="1" stop-color="rgb(88.066101%, 78.463745%, 52.835083%)" offset="0.179688"/><stop stop-opacity="1" stop-color="rgb(88.011169%, 78.363037%, 52.635193%)" offset="0.183594"/><stop stop-opacity="1" stop-color="rgb(87.956238%, 78.262329%, 52.436829%)" offset="0.1875"/><stop stop-opacity="1" stop-color="rgb(87.89978%, 78.161621%, 52.236938%)" offset="0.191406"/><stop stop-opacity="1" stop-color="rgb(87.844849%, 78.060913%, 52.038574%)" offset="0.195312"/><stop stop-opacity="1" stop-color="rgb(87.789917%, 77.958679%, 51.838684%)" offset="0.199219"/><stop stop-opacity="1" stop-color="rgb(87.734985%, 77.857971%, 51.64032%)" offset="0.203125"/><stop stop-opacity="1" stop-color="rgb(87.680054%, 77.757263%, 51.44043%)" offset="0.207031"/><stop stop-opacity="1" stop-color="rgb(87.625122%, 77.656555%, 51.242065%)" offset="0.210937"/><stop stop-opacity="1" stop-color="rgb(87.57019%, 77.555847%, 51.042175%)" offset="0.214844"/><stop stop-opacity="1" stop-color="rgb(87.515259%, 77.455139%, 50.842285%)" offset="0.21875"/><stop stop-opacity="1" stop-color="rgb(87.460327%, 77.354431%, 50.642395%)" offset="0.222656"/><stop stop-opacity="1" stop-color="rgb(87.405396%, 77.253723%, 50.444031%)" offset="0.226562"/><stop stop-opacity="1" stop-color="rgb(87.348938%, 77.153015%, 50.244141%)" offset="0.230469"/><stop stop-opacity="1" stop-color="rgb(87.294006%, 77.052307%, 50.045776%)" offset="0.234375"/><stop stop-opacity="1" stop-color="rgb(87.239075%, 76.951599%, 49.845886%)" offset="0.238281"/><stop stop-opacity="1" stop-color="rgb(87.184143%, 76.850891%, 49.647522%)" offset="0.242187"/><stop stop-opacity="1" stop-color="rgb(87.129211%, 76.750183%, 49.447632%)" offset="0.246094"/><stop stop-opacity="1" stop-color="rgb(87.07428%, 76.649475%, 49.249268%)" offset="0.25"/><stop stop-opacity="1" stop-color="rgb(87.019348%, 76.548767%, 49.049377%)" offset="0.253906"/><stop stop-opacity="1" stop-color="rgb(86.964417%, 76.448059%, 48.851013%)" offset="0.257812"/><stop stop-opacity="1" stop-color="rgb(86.909485%, 76.347351%, 48.651123%)" offset="0.261719"/><stop stop-opacity="1" stop-color="rgb(86.854553%, 76.246643%, 48.452759%)" offset="0.265625"/><stop stop-opacity="1" stop-color="rgb(86.798096%, 76.145935%, 48.252869%)" offset="0.269531"/><stop stop-opacity="1" stop-color="rgb(86.743164%, 76.045227%, 48.054504%)" offset="0.273438"/><stop stop-opacity="1" stop-color="rgb(86.688232%, 75.942993%, 47.854614%)" offset="0.277344"/><stop stop-opacity="1" stop-color="rgb(86.633301%, 75.842285%, 47.65625%)" offset="0.28125"/><stop stop-opacity="1" stop-color="rgb(86.578369%, 75.741577%, 47.45636%)" offset="0.285156"/><stop stop-opacity="1" stop-color="rgb(86.523438%, 75.640869%, 47.25647%)" offset="0.289062"/><stop stop-opacity="1" stop-color="rgb(86.468506%, 75.540161%, 47.05658%)" offset="0.292969"/><stop stop-opacity="1" stop-color="rgb(86.413574%, 75.439453%, 46.858215%)" offset="0.296875"/><stop stop-opacity="1" stop-color="rgb(86.358643%, 75.338745%, 46.658325%)" offset="0.300781"/><stop stop-opacity="1" stop-color="rgb(86.303711%, 75.238037%, 46.459961%)" offset="0.304688"/><stop stop-opacity="1" stop-color="rgb(86.247253%, 75.137329%, 46.260071%)" offset="0.308594"/><stop stop-opacity="1" stop-color="rgb(86.192322%, 75.036621%, 46.061707%)" offset="0.3125"/><stop stop-opacity="1" stop-color="rgb(86.13739%, 74.935913%, 45.861816%)" offset="0.316406"/><stop stop-opacity="1" stop-color="rgb(86.082458%, 74.835205%, 45.663452%)" offset="0.320312"/><stop stop-opacity="1" stop-color="rgb(86.027527%, 74.734497%, 45.463562%)" offset="0.324219"/><stop stop-opacity="1" stop-color="rgb(85.972595%, 74.633789%, 45.265198%)" offset="0.328125"/><stop stop-opacity="1" stop-color="rgb(85.917664%, 74.533081%, 45.065308%)" offset="0.332031"/><stop stop-opacity="1" stop-color="rgb(85.862732%, 74.432373%, 44.866943%)" offset="0.335938"/><stop stop-opacity="1" stop-color="rgb(85.8078%, 74.331665%, 44.667053%)" offset="0.339844"/><stop stop-opacity="1" stop-color="rgb(85.752869%, 74.230957%, 44.468689%)" offset="0.34375"/><stop stop-opacity="1" stop-color="rgb(85.696411%, 74.130249%, 44.268799%)" offset="0.347656"/><stop stop-opacity="1" stop-color="rgb(85.641479%, 74.029541%, 44.068909%)" offset="0.351562"/><stop stop-opacity="1" stop-color="rgb(85.586548%, 73.928833%, 43.869019%)" offset="0.355469"/><stop stop-opacity="1" stop-color="rgb(85.531616%, 73.828125%, 43.670654%)" offset="0.359375"/><stop stop-opacity="1" stop-color="rgb(85.476685%, 73.725891%, 43.470764%)" offset="0.363281"/><stop stop-opacity="1" stop-color="rgb(85.421753%, 73.625183%, 43.2724%)" offset="0.367188"/><stop stop-opacity="1" stop-color="rgb(85.366821%, 73.524475%, 43.07251%)" offset="0.371094"/><stop stop-opacity="1" stop-color="rgb(85.31189%, 73.423767%, 42.874146%)" offset="0.375"/><stop stop-opacity="1" stop-color="rgb(85.256958%, 73.323059%, 42.674255%)" offset="0.378906"/><stop stop-opacity="1" stop-color="rgb(85.202026%, 73.222351%, 42.475891%)" offset="0.382812"/><stop stop-opacity="1" stop-color="rgb(85.147095%, 73.121643%, 42.276001%)" offset="0.386719"/><stop stop-opacity="1" stop-color="rgb(85.092163%, 73.020935%, 42.077637%)" offset="0.390625"/><stop stop-opacity="1" stop-color="rgb(85.035706%, 72.920227%, 41.877747%)" offset="0.394531"/><stop stop-opacity="1" stop-color="rgb(84.980774%, 72.819519%, 41.679382%)" offset="0.398438"/><stop stop-opacity="1" stop-color="rgb(84.925842%, 72.718811%, 41.479492%)" offset="0.402344"/><stop stop-opacity="1" stop-color="rgb(84.870911%, 72.618103%, 41.281128%)" offset="0.40625"/><stop stop-opacity="1" stop-color="rgb(84.815979%, 72.517395%, 41.081238%)" offset="0.410156"/><stop stop-opacity="1" stop-color="rgb(84.761047%, 72.416687%, 40.881348%)" offset="0.414062"/><stop stop-opacity="1" stop-color="rgb(84.706116%, 72.315979%, 40.681458%)" offset="0.417969"/><stop stop-opacity="1" stop-color="rgb(84.651184%, 72.215271%, 40.483093%)" offset="0.421875"/><stop stop-opacity="1" stop-color="rgb(84.596252%, 72.114563%, 40.283203%)" offset="0.425781"/><stop stop-opacity="1" stop-color="rgb(84.541321%, 72.013855%, 40.084839%)" offset="0.429687"/><stop stop-opacity="1" stop-color="rgb(84.484863%, 71.913147%, 39.884949%)" offset="0.433594"/><stop stop-opacity="1" stop-color="rgb(84.429932%, 71.812439%, 39.686584%)" offset="0.4375"/><stop stop-opacity="1" stop-color="rgb(84.375%, 71.710205%, 39.486694%)" offset="0.441406"/><stop stop-opacity="1" stop-color="rgb(84.320068%, 71.609497%, 39.28833%)" offset="0.445312"/><stop stop-opacity="1" stop-color="rgb(84.265137%, 71.508789%, 39.08844%)" offset="0.449219"/><stop stop-opacity="1" stop-color="rgb(84.210205%, 71.408081%, 38.890076%)" offset="0.453125"/><stop stop-opacity="1" stop-color="rgb(84.155273%, 71.307373%, 38.690186%)" offset="0.457031"/><stop stop-opacity="1" stop-color="rgb(84.100342%, 71.206665%, 38.491821%)" offset="0.460937"/><stop stop-opacity="1" stop-color="rgb(84.04541%, 71.105957%, 38.291931%)" offset="0.464844"/><stop stop-opacity="1" stop-color="rgb(83.990479%, 71.005249%, 38.093567%)" offset="0.46875"/><stop stop-opacity="1" stop-color="rgb(83.934021%, 70.904541%, 37.893677%)" offset="0.472656"/><stop stop-opacity="1" stop-color="rgb(83.879089%, 70.803833%, 37.695312%)" offset="0.476562"/><stop stop-opacity="1" stop-color="rgb(83.824158%, 70.703125%, 37.495422%)" offset="0.480469"/><stop stop-opacity="1" stop-color="rgb(83.769226%, 70.602417%, 37.295532%)" offset="0.484375"/><stop stop-opacity="1" stop-color="rgb(83.714294%, 70.501709%, 37.095642%)" offset="0.488281"/><stop stop-opacity="1" stop-color="rgb(83.659363%, 70.401001%, 36.897278%)" offset="0.492187"/><stop stop-opacity="1" stop-color="rgb(83.604431%, 70.300293%, 36.697388%)" offset="0.496094"/><stop stop-opacity="1" stop-color="rgb(83.5495%, 70.199585%, 36.499023%)" offset="0.5"/><stop stop-opacity="1" stop-color="rgb(83.494568%, 70.098877%, 36.299133%)" offset="0.503906"/><stop stop-opacity="1" stop-color="rgb(83.439636%, 69.998169%, 36.100769%)" offset="0.507812"/><stop stop-opacity="1" stop-color="rgb(83.383179%, 69.897461%, 35.900879%)" offset="0.511719"/><stop stop-opacity="1" stop-color="rgb(83.328247%, 69.796753%, 35.702515%)" offset="0.515625"/><stop stop-opacity="1" stop-color="rgb(83.273315%, 69.694519%, 35.502625%)" offset="0.519531"/><stop stop-opacity="1" stop-color="rgb(83.218384%, 69.593811%, 35.30426%)" offset="0.523438"/><stop stop-opacity="1" stop-color="rgb(83.163452%, 69.493103%, 35.10437%)" offset="0.527344"/><stop stop-opacity="1" stop-color="rgb(83.108521%, 69.392395%, 34.906006%)" offset="0.53125"/><stop stop-opacity="1" stop-color="rgb(83.053589%, 69.291687%, 34.706116%)" offset="0.535156"/><stop stop-opacity="1" stop-color="rgb(82.998657%, 69.190979%, 34.507751%)" offset="0.539062"/><stop stop-opacity="1" stop-color="rgb(82.943726%, 69.090271%, 34.307861%)" offset="0.542969"/><stop stop-opacity="1" stop-color="rgb(82.888794%, 68.989563%, 34.107971%)" offset="0.546875"/><stop stop-opacity="1" stop-color="rgb(82.832336%, 68.888855%, 33.908081%)" offset="0.550781"/><stop stop-opacity="1" stop-color="rgb(82.777405%, 68.788147%, 33.709717%)" offset="0.554688"/><stop stop-opacity="1" stop-color="rgb(82.722473%, 68.687439%, 33.509827%)" offset="0.558594"/><stop stop-opacity="1" stop-color="rgb(82.667542%, 68.586731%, 33.311462%)" offset="0.5625"/><stop stop-opacity="1" stop-color="rgb(82.61261%, 68.486023%, 33.111572%)" offset="0.566406"/><stop stop-opacity="1" stop-color="rgb(82.557678%, 68.385315%, 32.913208%)" offset="0.570312"/><stop stop-opacity="1" stop-color="rgb(82.502747%, 68.284607%, 32.713318%)" offset="0.574219"/><stop stop-opacity="1" stop-color="rgb(82.447815%, 68.183899%, 32.514954%)" offset="0.578125"/><stop stop-opacity="1" stop-color="rgb(82.392883%, 68.083191%, 32.315063%)" offset="0.582031"/><stop stop-opacity="1" stop-color="rgb(82.337952%, 67.982483%, 32.116699%)" offset="0.585938"/><stop stop-opacity="1" stop-color="rgb(82.28302%, 67.881775%, 31.916809%)" offset="0.589844"/><stop stop-opacity="1" stop-color="rgb(82.228088%, 67.781067%, 31.718445%)" offset="0.59375"/><stop stop-opacity="1" stop-color="rgb(82.171631%, 67.680359%, 31.518555%)" offset="0.597656"/><stop stop-opacity="1" stop-color="rgb(82.116699%, 67.579651%, 31.32019%)" offset="0.601562"/><stop stop-opacity="1" stop-color="rgb(82.061768%, 67.477417%, 31.1203%)" offset="0.605469"/><stop stop-opacity="1" stop-color="rgb(82.006836%, 67.376709%, 30.92041%)" offset="0.609375"/><stop stop-opacity="1" stop-color="rgb(81.951904%, 67.276001%, 30.72052%)" offset="0.613281"/><stop stop-opacity="1" stop-color="rgb(81.896973%, 67.175293%, 30.522156%)" offset="0.617188"/><stop stop-opacity="1" stop-color="rgb(81.842041%, 67.074585%, 30.322266%)" offset="0.621094"/><stop stop-opacity="1" stop-color="rgb(81.787109%, 66.973877%, 30.123901%)" offset="0.625"/><stop stop-opacity="1" stop-color="rgb(81.732178%, 66.873169%, 29.924011%)" offset="0.628906"/><stop stop-opacity="1" stop-color="rgb(81.677246%, 66.772461%, 29.725647%)" offset="0.632812"/><stop stop-opacity="1" stop-color="rgb(81.620789%, 66.671753%, 29.525757%)" offset="0.636719"/><stop stop-opacity="1" stop-color="rgb(81.565857%, 66.571045%, 29.327393%)" offset="0.640625"/><stop stop-opacity="1" stop-color="rgb(81.510925%, 66.470337%, 29.127502%)" offset="0.644531"/><stop stop-opacity="1" stop-color="rgb(81.455994%, 66.369629%, 28.929138%)" offset="0.648438"/><stop stop-opacity="1" stop-color="rgb(81.401062%, 66.268921%, 28.729248%)" offset="0.652344"/><stop stop-opacity="1" stop-color="rgb(81.34613%, 66.168213%, 28.530884%)" offset="0.65625"/><stop stop-opacity="1" stop-color="rgb(81.291199%, 66.067505%, 28.330994%)" offset="0.660156"/><stop stop-opacity="1" stop-color="rgb(81.236267%, 65.966797%, 28.132629%)" offset="0.664062"/><stop stop-opacity="1" stop-color="rgb(81.181335%, 65.866089%, 27.932739%)" offset="0.667969"/><stop stop-opacity="1" stop-color="rgb(81.126404%, 65.765381%, 27.734375%)" offset="0.671875"/><stop stop-opacity="1" stop-color="rgb(81.069946%, 65.664673%, 27.534485%)" offset="0.675781"/><stop stop-opacity="1" stop-color="rgb(81.015015%, 65.563965%, 27.334595%)" offset="0.679688"/><stop stop-opacity="1" stop-color="rgb(80.960083%, 65.461731%, 27.134705%)" offset="0.683594"/><stop stop-opacity="1" stop-color="rgb(80.905151%, 65.361023%, 26.93634%)" offset="0.6875"/><stop stop-opacity="1" stop-color="rgb(80.85022%, 65.260315%, 26.73645%)" offset="0.691406"/><stop stop-opacity="1" stop-color="rgb(80.795288%, 65.159607%, 26.538086%)" offset="0.695312"/><stop stop-opacity="1" stop-color="rgb(80.740356%, 65.058899%, 26.338196%)" offset="0.699219"/><stop stop-opacity="1" stop-color="rgb(80.685425%, 64.958191%, 26.139832%)" offset="0.703125"/><stop stop-opacity="1" stop-color="rgb(80.630493%, 64.857483%, 25.939941%)" offset="0.707031"/><stop stop-opacity="1" stop-color="rgb(80.575562%, 64.756775%, 25.741577%)" offset="0.710938"/><stop stop-opacity="1" stop-color="rgb(80.519104%, 64.656067%, 25.541687%)" offset="0.714844"/><stop stop-opacity="1" stop-color="rgb(80.464172%, 64.555359%, 25.343323%)" offset="0.71875"/><stop stop-opacity="1" stop-color="rgb(80.409241%, 64.454651%, 25.143433%)" offset="0.722656"/><stop stop-opacity="1" stop-color="rgb(80.354309%, 64.353943%, 24.945068%)" offset="0.726562"/><stop stop-opacity="1" stop-color="rgb(80.299377%, 64.253235%, 24.745178%)" offset="0.730469"/><stop stop-opacity="1" stop-color="rgb(80.244446%, 64.152527%, 24.546814%)" offset="0.734375"/><stop stop-opacity="1" stop-color="rgb(80.189514%, 64.051819%, 24.346924%)" offset="0.738281"/><stop stop-opacity="1" stop-color="rgb(80.134583%, 63.951111%, 24.147034%)" offset="0.742188"/><stop stop-opacity="1" stop-color="rgb(80.079651%, 63.850403%, 23.947144%)" offset="0.746094"/><stop stop-opacity="1" stop-color="rgb(80.024719%, 63.749695%, 23.748779%)" offset="0.75"/><stop stop-opacity="1" stop-color="rgb(79.968262%, 63.648987%, 23.548889%)" offset="0.753906"/><stop stop-opacity="1" stop-color="rgb(79.91333%, 63.548279%, 23.350525%)" offset="0.757812"/><stop stop-opacity="1" stop-color="rgb(79.858398%, 63.447571%, 23.150635%)" offset="0.761719"/><stop stop-opacity="1" stop-color="rgb(79.803467%, 63.346863%, 22.952271%)" offset="0.765625"/><stop stop-opacity="1" stop-color="rgb(79.748535%, 63.244629%, 22.75238%)" offset="0.769531"/><stop stop-opacity="1" stop-color="rgb(79.693604%, 63.143921%, 22.554016%)" offset="0.773438"/><stop stop-opacity="1" stop-color="rgb(79.638672%, 63.043213%, 22.354126%)" offset="0.777344"/><stop stop-opacity="1" stop-color="rgb(79.58374%, 62.942505%, 22.155762%)" offset="0.78125"/><stop stop-opacity="1" stop-color="rgb(79.528809%, 62.841797%, 21.955872%)" offset="0.785156"/><stop stop-opacity="1" stop-color="rgb(79.473877%, 62.741089%, 21.757507%)" offset="0.789063"/><stop stop-opacity="1" stop-color="rgb(79.418945%, 62.640381%, 21.557617%)" offset="0.792969"/><stop stop-opacity="1" stop-color="rgb(79.364014%, 62.539673%, 21.359253%)" offset="0.796875"/><stop stop-opacity="1" stop-color="rgb(79.307556%, 62.438965%, 21.159363%)" offset="0.800781"/><stop stop-opacity="1" stop-color="rgb(79.252625%, 62.338257%, 20.959473%)" offset="0.804688"/><stop stop-opacity="1" stop-color="rgb(79.197693%, 62.237549%, 20.759583%)" offset="0.808594"/><stop stop-opacity="1" stop-color="rgb(79.142761%, 62.136841%, 20.561218%)" offset="0.8125"/><stop stop-opacity="1" stop-color="rgb(79.08783%, 62.036133%, 20.361328%)" offset="0.816406"/><stop stop-opacity="1" stop-color="rgb(79.032898%, 61.935425%, 20.162964%)" offset="0.820313"/><stop stop-opacity="1" stop-color="rgb(78.977966%, 61.834717%, 19.963074%)" offset="0.824219"/><stop stop-opacity="1" stop-color="rgb(78.923035%, 61.734009%, 19.764709%)" offset="0.828125"/><stop stop-opacity="1" stop-color="rgb(78.868103%, 61.633301%, 19.564819%)" offset="0.832031"/><stop stop-opacity="1" stop-color="rgb(78.813171%, 61.532593%, 19.366455%)" offset="0.835938"/><stop stop-opacity="1" stop-color="rgb(78.756714%, 61.431885%, 19.166565%)" offset="0.839844"/><stop stop-opacity="1" stop-color="rgb(78.701782%, 61.331177%, 18.968201%)" offset="0.84375"/><stop stop-opacity="1" stop-color="rgb(78.646851%, 61.228943%, 18.768311%)" offset="0.847656"/><stop stop-opacity="1" stop-color="rgb(78.591919%, 61.128235%, 18.569946%)" offset="0.851562"/><stop stop-opacity="1" stop-color="rgb(78.536987%, 61.027527%, 18.370056%)" offset="0.855469"/><stop stop-opacity="1" stop-color="rgb(78.482056%, 60.926819%, 18.171692%)" offset="0.859375"/><stop stop-opacity="1" stop-color="rgb(78.427124%, 60.826111%, 17.971802%)" offset="0.863281"/><stop stop-opacity="1" stop-color="rgb(78.372192%, 60.725403%, 17.773438%)" offset="0.867188"/><stop stop-opacity="1" stop-color="rgb(78.317261%, 60.624695%, 17.573547%)" offset="0.871094"/><stop stop-opacity="1" stop-color="rgb(78.262329%, 60.523987%, 17.373657%)" offset="0.875"/><stop stop-opacity="1" stop-color="rgb(78.205872%, 60.423279%, 17.173767%)" offset="0.878906"/><stop stop-opacity="1" stop-color="rgb(78.15094%, 60.322571%, 16.975403%)" offset="0.882812"/><stop stop-opacity="1" stop-color="rgb(78.096008%, 60.221863%, 16.775513%)" offset="0.886719"/><stop stop-opacity="1" stop-color="rgb(78.041077%, 60.121155%, 16.577148%)" offset="0.890625"/><stop stop-opacity="1" stop-color="rgb(77.986145%, 60.020447%, 16.377258%)" offset="0.894531"/><stop stop-opacity="1" stop-color="rgb(77.931213%, 59.919739%, 16.178894%)" offset="0.898438"/><stop stop-opacity="1" stop-color="rgb(77.876282%, 59.819031%, 15.979004%)" offset="0.902344"/><stop stop-opacity="1" stop-color="rgb(77.82135%, 59.718323%, 15.78064%)" offset="0.90625"/><stop stop-opacity="1" stop-color="rgb(77.766418%, 59.617615%, 15.58075%)" offset="0.910156"/><stop stop-opacity="1" stop-color="rgb(77.711487%, 59.516907%, 15.382385%)" offset="0.914062"/><stop stop-opacity="1" stop-color="rgb(77.655029%, 59.416199%, 15.182495%)" offset="0.917969"/><stop stop-opacity="1" stop-color="rgb(77.600098%, 59.315491%, 14.984131%)" offset="0.921875"/><stop stop-opacity="1" stop-color="rgb(77.545166%, 59.213257%, 14.784241%)" offset="0.925781"/><stop stop-opacity="1" stop-color="rgb(77.490234%, 59.112549%, 14.585876%)" offset="0.929688"/><stop stop-opacity="1" stop-color="rgb(77.435303%, 59.011841%, 14.385986%)" offset="0.933594"/><stop stop-opacity="1" stop-color="rgb(77.380371%, 58.911133%, 14.186096%)" offset="0.9375"/><stop stop-opacity="1" stop-color="rgb(77.325439%, 58.810425%, 13.986206%)" offset="0.941406"/><stop stop-opacity="1" stop-color="rgb(77.270508%, 58.709717%, 13.787842%)" offset="0.945312"/><stop stop-opacity="1" stop-color="rgb(77.215576%, 58.609009%, 13.587952%)" offset="0.949219"/><stop stop-opacity="1" stop-color="rgb(77.160645%, 58.508301%, 13.389587%)" offset="0.953125"/><stop stop-opacity="1" stop-color="rgb(77.105713%, 58.407593%, 13.189697%)" offset="0.957031"/><stop stop-opacity="1" stop-color="rgb(77.050781%, 58.306885%, 12.991333%)" offset="0.960938"/><stop stop-opacity="1" stop-color="rgb(76.994324%, 58.206177%, 12.791443%)" offset="0.964844"/><stop stop-opacity="1" stop-color="rgb(76.939392%, 58.105469%, 12.593079%)" offset="0.96875"/><stop stop-opacity="1" stop-color="rgb(76.88446%, 58.004761%, 12.393188%)" offset="0.972656"/><stop stop-opacity="1" stop-color="rgb(76.829529%, 57.904053%, 12.194824%)" offset="0.976562"/><stop stop-opacity="1" stop-color="rgb(76.774597%, 57.803345%, 11.994934%)" offset="0.980469"/><stop stop-opacity="1" stop-color="rgb(76.719666%, 57.702637%, 11.79657%)" offset="0.984375"/><stop stop-opacity="1" stop-color="rgb(76.664734%, 57.601929%, 11.59668%)" offset="0.988281"/><stop stop-opacity="1" stop-color="rgb(76.609802%, 57.501221%, 11.398315%)" offset="0.992188"/><stop stop-opacity="1" stop-color="rgb(76.554871%, 57.400513%, 11.198425%)" offset="0.996094"/><stop stop-opacity="1" stop-color="rgb(76.499939%, 57.299805%, 10.998535%)" offset="1"/></linearGradient><clipPath id="6b10f1bbd9"><path d="M 52.75 67 L 166 67 L 166 105 L 52.75 105 Z M 52.75 67 " clip-rule="nonzero"/></clipPath><clipPath id="a08bbc10de"><path d="M 124 60.972656 L 226 60.972656 L 226 106.601562 L 124 106.601562 Z M 124 60.972656 " clip-rule="nonzero"/></clipPath></defs><path stroke-linecap="butt" transform="matrix(2.963606, 0, 0, 2.992021, 83.035688, 162.523939)" fill="none" stroke-linejoin="miter" d="M -0.000179363 -0.000167757 L 11.105907 -0.000167757 " stroke="#c3921c" stroke-width="1" stroke-opacity="1" stroke-miterlimit="4"/><path stroke-linecap="butt" transform="matrix(2.963606, 0, 0, 2.992021, 258.7342, 162.523939)" fill="none" stroke-linejoin="miter" d="M 0.0000591419 -0.000167757 L 11.106145 -0.000167757 " stroke="#c3921c" stroke-width="1" stroke-opacity="1" stroke-miterlimit="4"/><g fill="#031a5b" fill-opacity="1"><g transform="translate(19.282162, 141.904919)"><g><path d="M 0.15625 -10.671875 L 0.15625 -13.1875 L 11.171875 -13.1875 L 11.171875 -10.671875 L 7.140625 -10.671875 L 7.140625 0 L 4.171875 0 L 4.171875 -10.671875 Z M 0.15625 -10.671875 "/></g></g></g><g fill="#031a5b" fill-opacity="1"><g transform="translate(31.566693, 141.904919)"><g><path d="M 1.453125 0 L 1.453125 -13.1875 L 11.5 -13.1875 L 11.5 -10.71875 L 4.421875 -10.71875 L 4.421875 -7.859375 L 10.78125 -7.859375 L 10.78125 -5.390625 L 4.421875 -5.390625 L 4.421875 -2.46875 L 11.703125 -2.46875 L 11.703125 0 Z M 1.453125 0 "/></g></g></g><g fill="#031a5b" fill-opacity="1"><g transform="translate(45.113528, 141.904919)"><g><path d="M 8.671875 -4.21875 C 8.671875 -2.851562 8.273438 -1.785156 7.484375 -1.015625 C 6.703125 -0.253906 5.617188 0.125 4.234375 0.125 C 2.523438 0.125 1.085938 -0.554688 -0.078125 -1.921875 L 1.296875 -4.03125 C 1.753906 -3.550781 2.226562 -3.1875 2.71875 -2.9375 C 3.21875 -2.6875 3.675781 -2.5625 4.09375 -2.5625 C 4.59375 -2.5625 4.976562 -2.710938 5.25 -3.015625 C 5.53125 -3.316406 5.671875 -3.742188 5.671875 -4.296875 L 5.671875 -10.671875 L 1.125 -10.671875 L 1.125 -13.1875 L 8.671875 -13.1875 Z M 8.671875 -4.21875 "/></g></g></g><g fill="#031a5b" fill-opacity="1"><g transform="translate(55.947349, 141.904919)"><g><path d="M 4.203125 -5.453125 C 4.203125 -4.503906 4.46875 -3.753906 5 -3.203125 C 5.53125 -2.660156 6.242188 -2.390625 7.140625 -2.390625 C 8.003906 -2.390625 8.691406 -2.660156 9.203125 -3.203125 C 9.722656 -3.742188 9.984375 -4.492188 9.984375 -5.453125 L 9.984375 -13.1875 L 12.96875 -13.1875 L 12.96875 -5.453125 C 12.96875 -4.296875 12.726562 -3.289062 12.25 -2.4375 C 11.78125 -1.59375 11.101562 -0.941406 10.21875 -0.484375 C 9.34375 -0.0234375 8.3125 0.203125 7.125 0.203125 C 5.925781 0.203125 4.878906 -0.0234375 3.984375 -0.484375 C 3.097656 -0.941406 2.414062 -1.59375 1.9375 -2.4375 C 1.457031 -3.289062 1.21875 -4.296875 1.21875 -5.453125 L 1.21875 -13.1875 L 4.203125 -13.1875 Z M 4.203125 -5.453125 "/></g></g></g><g fill="#031a5b" fill-opacity="1"><g transform="translate(71.095623, 141.904919)"><g/></g></g><g fill="#031a5b" fill-opacity="1"><g transform="translate(77.143992, 141.904919)"><g><path d="M 11.171875 0.515625 L 9.25 -1.375 C 8.09375 -0.375 6.816406 0.125 5.421875 0.125 C 4.597656 0.125 3.851562 -0.0351562 3.1875 -0.359375 C 2.519531 -0.679688 1.992188 -1.128906 1.609375 -1.703125 C 1.222656 -2.285156 1.03125 -2.941406 1.03125 -3.671875 C 1.03125 -4.503906 1.265625 -5.191406 1.734375 -5.734375 C 2.210938 -6.285156 2.878906 -6.789062 3.734375 -7.25 C 3.328125 -7.800781 3.03125 -8.3125 2.84375 -8.78125 C 2.664062 -9.257812 2.578125 -9.738281 2.578125 -10.21875 C 2.578125 -11.144531 2.910156 -11.894531 3.578125 -12.46875 C 4.242188 -13.039062 5.128906 -13.328125 6.234375 -13.328125 C 6.941406 -13.328125 7.570312 -13.203125 8.125 -12.953125 C 8.675781 -12.710938 9.101562 -12.367188 9.40625 -11.921875 C 9.71875 -11.484375 9.875 -10.984375 9.875 -10.421875 C 9.875 -9.609375 9.597656 -8.929688 9.046875 -8.390625 C 8.503906 -7.847656 7.738281 -7.328125 6.75 -6.828125 C 7.382812 -6.097656 8.144531 -5.304688 9.03125 -4.453125 C 9.4375 -5.117188 9.769531 -5.851562 10.03125 -6.65625 L 11.875 -5.28125 C 11.5625 -4.457031 11.144531 -3.664062 10.625 -2.90625 C 10.988281 -2.539062 11.660156 -1.894531 12.640625 -0.96875 Z M 4.859375 -10.21875 C 4.859375 -9.632812 5.117188 -8.96875 5.640625 -8.21875 C 6.265625 -8.550781 6.742188 -8.882812 7.078125 -9.21875 C 7.421875 -9.550781 7.59375 -9.945312 7.59375 -10.40625 C 7.59375 -10.769531 7.46875 -11.0625 7.21875 -11.28125 C 6.976562 -11.5 6.664062 -11.609375 6.28125 -11.609375 C 5.851562 -11.609375 5.507812 -11.476562 5.25 -11.21875 C 4.988281 -10.957031 4.859375 -10.625 4.859375 -10.21875 Z M 5.546875 -1.984375 C 6.296875 -1.984375 7.019531 -2.273438 7.71875 -2.859375 C 6.582031 -4.003906 5.632812 -4.992188 4.875 -5.828125 C 4.414062 -5.535156 4.054688 -5.234375 3.796875 -4.921875 C 3.546875 -4.617188 3.421875 -4.269531 3.421875 -3.875 C 3.421875 -3.3125 3.625 -2.851562 4.03125 -2.5 C 4.4375 -2.15625 4.941406 -1.984375 5.546875 -1.984375 Z M 5.546875 -1.984375 "/></g></g></g><g fill="#031a5b" fill-opacity="1"><g transform="translate(90.87923, 141.904919)"><g/></g></g><g fill="#031a5b" fill-opacity="1"><g transform="translate(96.9276, 141.904919)"><g><path d="M 7.59375 -13.390625 C 8.914062 -13.390625 10.113281 -13.09375 11.1875 -12.5 C 12.269531 -11.914062 13.117188 -11.101562 13.734375 -10.0625 C 14.359375 -9.03125 14.671875 -7.878906 14.671875 -6.609375 C 14.671875 -5.335938 14.359375 -4.179688 13.734375 -3.140625 C 13.117188 -2.097656 12.269531 -1.28125 11.1875 -0.6875 C 10.113281 -0.09375 8.914062 0.203125 7.59375 0.203125 C 6.269531 0.203125 5.066406 -0.09375 3.984375 -0.6875 C 2.910156 -1.28125 2.0625 -2.09375 1.4375 -3.125 C 0.820312 -4.164062 0.515625 -5.328125 0.515625 -6.609375 C 0.515625 -7.878906 0.820312 -9.03125 1.4375 -10.0625 C 2.0625 -11.101562 2.910156 -11.914062 3.984375 -12.5 C 5.054688 -13.09375 6.257812 -13.390625 7.59375 -13.390625 Z M 7.625 -10.796875 C 6.894531 -10.796875 6.21875 -10.609375 5.59375 -10.234375 C 4.96875 -9.867188 4.472656 -9.363281 4.109375 -8.71875 C 3.742188 -8.082031 3.5625 -7.378906 3.5625 -6.609375 C 3.5625 -5.835938 3.742188 -5.128906 4.109375 -4.484375 C 4.484375 -3.847656 4.976562 -3.335938 5.59375 -2.953125 C 6.21875 -2.578125 6.894531 -2.390625 7.625 -2.390625 C 8.351562 -2.390625 9.019531 -2.570312 9.625 -2.9375 C 10.238281 -3.3125 10.722656 -3.820312 11.078125 -4.46875 C 11.441406 -5.125 11.625 -5.835938 11.625 -6.609375 C 11.625 -7.378906 11.441406 -8.082031 11.078125 -8.71875 C 10.722656 -9.363281 10.238281 -9.867188 9.625 -10.234375 C 9.019531 -10.609375 8.351562 -10.796875 7.625 -10.796875 Z M 7.625 -10.796875 "/></g></g></g><g fill="#031a5b" fill-opacity="1"><g transform="translate(113.074406, 141.904919)"><g><path d="M 8.671875 -4.21875 C 8.671875 -2.851562 8.273438 -1.785156 7.484375 -1.015625 C 6.703125 -0.253906 5.617188 0.125 4.234375 0.125 C 2.523438 0.125 1.085938 -0.554688 -0.078125 -1.921875 L 1.296875 -4.03125 C 1.753906 -3.550781 2.226562 -3.1875 2.71875 -2.9375 C 3.21875 -2.6875 3.675781 -2.5625 4.09375 -2.5625 C 4.59375 -2.5625 4.976562 -2.710938 5.25 -3.015625 C 5.53125 -3.316406 5.671875 -3.742188 5.671875 -4.296875 L 5.671875 -10.671875 L 1.125 -10.671875 L 1.125 -13.1875 L 8.671875 -13.1875 Z M 8.671875 -4.21875 "/></g></g></g><g fill="#031a5b" fill-opacity="1"><g transform="translate(123.908224, 141.904919)"><g><path d="M 4.203125 -5.453125 C 4.203125 -4.503906 4.46875 -3.753906 5 -3.203125 C 5.53125 -2.660156 6.242188 -2.390625 7.140625 -2.390625 C 8.003906 -2.390625 8.691406 -2.660156 9.203125 -3.203125 C 9.722656 -3.742188 9.984375 -4.492188 9.984375 -5.453125 L 9.984375 -13.1875 L 12.96875 -13.1875 L 12.96875 -5.453125 C 12.96875 -4.296875 12.726562 -3.289062 12.25 -2.4375 C 11.78125 -1.59375 11.101562 -0.941406 10.21875 -0.484375 C 9.34375 -0.0234375 8.3125 0.203125 7.125 0.203125 C 5.925781 0.203125 4.878906 -0.0234375 3.984375 -0.484375 C 3.097656 -0.941406 2.414062 -1.59375 1.9375 -2.4375 C 1.457031 -3.289062 1.21875 -4.296875 1.21875 -5.453125 L 1.21875 -13.1875 L 4.203125 -13.1875 Z M 4.203125 -5.453125 "/></g></g></g><g fill="#031a5b" fill-opacity="1"><g transform="translate(139.056494, 141.904919)"><g/></g></g><g fill="#031a5b" fill-opacity="1"><g transform="translate(145.104864, 141.904919)"><g><path d="M 14.375 0 L 11.1875 0 L 10.15625 -2.5625 L 4.046875 -2.5625 L 3.015625 0 L -0.0625 0 L 5.671875 -13.1875 L 8.75 -13.1875 Z M 7.125 -10.078125 L 5.03125 -4.953125 L 9.203125 -4.953125 Z M 7.125 -10.078125 "/></g></g></g><g fill="#031a5b" fill-opacity="1"><g transform="translate(160.366175, 141.904919)"><g><path d="M 1.453125 0 L 1.453125 -13.1875 L 4.421875 -13.1875 L 4.421875 -2.59375 L 10.078125 -2.59375 L 10.078125 0 Z M 1.453125 0 "/></g></g></g><g fill="#031a5b" fill-opacity="1"><g transform="translate(171.727532, 141.904919)"><g><path d="M 1.453125 0 L 1.453125 -13.1875 L 4.421875 -13.1875 L 4.421875 -2.59375 L 10.078125 -2.59375 L 10.078125 0 Z M 1.453125 0 "/></g></g></g><g fill="#031a5b" fill-opacity="1"><g transform="translate(183.08889, 141.904919)"><g><path d="M 0.15625 -10.671875 L 0.15625 -13.1875 L 11.171875 -13.1875 L 11.171875 -10.671875 L 7.140625 -10.671875 L 7.140625 0 L 4.171875 0 L 4.171875 -10.671875 Z M 0.15625 -10.671875 "/></g></g></g><g fill="#031a5b" fill-opacity="1"><g transform="translate(195.373417, 141.904919)"><g><path d="M 7.59375 -13.390625 C 8.914062 -13.390625 10.113281 -13.09375 11.1875 -12.5 C 12.269531 -11.914062 13.117188 -11.101562 13.734375 -10.0625 C 14.359375 -9.03125 14.671875 -7.878906 14.671875 -6.609375 C 14.671875 -5.335938 14.359375 -4.179688 13.734375 -3.140625 C 13.117188 -2.097656 12.269531 -1.28125 11.1875 -0.6875 C 10.113281 -0.09375 8.914062 0.203125 7.59375 0.203125 C 6.269531 0.203125 5.066406 -0.09375 3.984375 -0.6875 C 2.910156 -1.28125 2.0625 -2.09375 1.4375 -3.125 C 0.820312 -4.164062 0.515625 -5.328125 0.515625 -6.609375 C 0.515625 -7.878906 0.820312 -9.03125 1.4375 -10.0625 C 2.0625 -11.101562 2.910156 -11.914062 3.984375 -12.5 C 5.054688 -13.09375 6.257812 -13.390625 7.59375 -13.390625 Z M 7.625 -10.796875 C 6.894531 -10.796875 6.21875 -10.609375 5.59375 -10.234375 C 4.96875 -9.867188 4.472656 -9.363281 4.109375 -8.71875 C 3.742188 -8.082031 3.5625 -7.378906 3.5625 -6.609375 C 3.5625 -5.835938 3.742188 -5.128906 4.109375 -4.484375 C 4.484375 -3.847656 4.976562 -3.335938 5.59375 -2.953125 C 6.21875 -2.578125 6.894531 -2.390625 7.625 -2.390625 C 8.351562 -2.390625 9.019531 -2.570312 9.625 -2.9375 C 10.238281 -3.3125 10.722656 -3.820312 11.078125 -4.46875 C 11.441406 -5.125 11.625 -5.835938 11.625 -6.609375 C 11.625 -7.378906 11.441406 -8.082031 11.078125 -8.71875 C 10.722656 -9.363281 10.238281 -9.867188 9.625 -10.234375 C 9.019531 -10.609375 8.351562 -10.796875 7.625 -10.796875 Z M 7.625 -10.796875 "/></g></g></g><g fill="#031a5b" fill-opacity="1"><g transform="translate(211.520223, 141.904919)"><g><path d="M 4.203125 -5.453125 C 4.203125 -4.503906 4.46875 -3.753906 5 -3.203125 C 5.53125 -2.660156 6.242188 -2.390625 7.140625 -2.390625 C 8.003906 -2.390625 8.691406 -2.660156 9.203125 -3.203125 C 9.722656 -3.742188 9.984375 -4.492188 9.984375 -5.453125 L 9.984375 -13.1875 L 12.96875 -13.1875 L 12.96875 -5.453125 C 12.96875 -4.296875 12.726562 -3.289062 12.25 -2.4375 C 11.78125 -1.59375 11.101562 -0.941406 10.21875 -0.484375 C 9.34375 -0.0234375 8.3125 0.203125 7.125 0.203125 C 5.925781 0.203125 4.878906 -0.0234375 3.984375 -0.484375 C 3.097656 -0.941406 2.414062 -1.59375 1.9375 -2.4375 C 1.457031 -3.289062 1.21875 -4.296875 1.21875 -5.453125 L 1.21875 -13.1875 L 4.203125 -13.1875 Z M 4.203125 -5.453125 "/></g></g></g><g fill="#031a5b" fill-opacity="1"><g transform="translate(226.668494, 141.904919)"><g><path d="M 12.921875 0 L 9.546875 0 L 7.46875 -3.765625 L 4.421875 -3.765625 L 4.421875 0 L 1.453125 0 L 1.453125 -13.1875 L 7.171875 -13.1875 C 8.898438 -13.1875 10.234375 -12.785156 11.171875 -11.984375 C 12.117188 -11.191406 12.59375 -10.066406 12.59375 -8.609375 C 12.59375 -7.585938 12.378906 -6.71875 11.953125 -6 C 11.535156 -5.28125 10.925781 -4.734375 10.125 -4.359375 Z M 4.421875 -10.71875 L 4.421875 -6.25 L 7.171875 -6.25 C 8.003906 -6.25 8.644531 -6.441406 9.09375 -6.828125 C 9.539062 -7.210938 9.765625 -7.773438 9.765625 -8.515625 C 9.765625 -9.242188 9.539062 -9.789062 9.09375 -10.15625 C 8.644531 -10.53125 8.003906 -10.71875 7.171875 -10.71875 Z M 4.421875 -10.71875 "/></g></g></g><g fill="#031a5b" fill-opacity="1"><g transform="translate(241.270393, 141.904919)"><g><path d="M 10.140625 -9.515625 C 9.460938 -9.929688 8.742188 -10.257812 7.984375 -10.5 C 7.222656 -10.75 6.570312 -10.875 6.03125 -10.875 C 5.507812 -10.875 5.097656 -10.78125 4.796875 -10.59375 C 4.503906 -10.40625 4.359375 -10.128906 4.359375 -9.765625 C 4.359375 -9.296875 4.570312 -8.9375 5 -8.6875 C 5.4375 -8.445312 6.109375 -8.195312 7.015625 -7.9375 C 7.910156 -7.664062 8.648438 -7.398438 9.234375 -7.140625 C 9.828125 -6.878906 10.328125 -6.484375 10.734375 -5.953125 C 11.148438 -5.421875 11.359375 -4.722656 11.359375 -3.859375 C 11.359375 -3.015625 11.132812 -2.285156 10.6875 -1.671875 C 10.25 -1.066406 9.640625 -0.609375 8.859375 -0.296875 C 8.078125 0.015625 7.191406 0.171875 6.203125 0.171875 C 5.128906 0.171875 4.078125 -0.015625 3.046875 -0.390625 C 2.015625 -0.773438 1.125 -1.289062 0.375 -1.9375 L 1.5625 -4.375 C 2.226562 -3.769531 2.992188 -3.285156 3.859375 -2.921875 C 4.722656 -2.554688 5.515625 -2.375 6.234375 -2.375 C 6.847656 -2.375 7.328125 -2.484375 7.671875 -2.703125 C 8.023438 -2.929688 8.203125 -3.257812 8.203125 -3.6875 C 8.203125 -4.03125 8.082031 -4.3125 7.84375 -4.53125 C 7.613281 -4.75 7.316406 -4.925781 6.953125 -5.0625 C 6.597656 -5.207031 6.109375 -5.367188 5.484375 -5.546875 C 4.578125 -5.796875 3.835938 -6.046875 3.265625 -6.296875 C 2.691406 -6.546875 2.195312 -6.925781 1.78125 -7.4375 C 1.375 -7.957031 1.171875 -8.644531 1.171875 -9.5 C 1.171875 -10.289062 1.382812 -10.984375 1.8125 -11.578125 C 2.238281 -12.171875 2.832031 -12.628906 3.59375 -12.953125 C 4.363281 -13.273438 5.257812 -13.4375 6.28125 -13.4375 C 7.175781 -13.4375 8.0625 -13.300781 8.9375 -13.03125 C 9.820312 -12.769531 10.601562 -12.421875 11.28125 -11.984375 Z M 10.140625 -9.515625 "/></g></g></g><g fill="#031a5b" fill-opacity="1"><g transform="translate(254.233177, 141.904919)"><g/></g></g><g fill="#031a5b" fill-opacity="1"><g transform="translate(260.281546, 141.904919)"><g><path d="M 7.046875 -13.1875 C 8.734375 -13.1875 10.035156 -12.785156 10.953125 -11.984375 C 11.867188 -11.191406 12.328125 -10.066406 12.328125 -8.609375 C 12.328125 -7.078125 11.863281 -5.882812 10.9375 -5.03125 C 10.007812 -4.1875 8.710938 -3.765625 7.046875 -3.765625 L 4.421875 -3.765625 L 4.421875 0 L 1.453125 0 L 1.453125 -13.1875 Z M 6.890625 -6.25 C 7.734375 -6.25 8.378906 -6.441406 8.828125 -6.828125 C 9.273438 -7.210938 9.5 -7.773438 9.5 -8.515625 C 9.5 -9.242188 9.273438 -9.789062 8.828125 -10.15625 C 8.378906 -10.53125 7.734375 -10.71875 6.890625 -10.71875 L 4.421875 -10.71875 L 4.421875 -6.25 Z M 6.890625 -6.25 "/></g></g></g><g fill="#031a5b" fill-opacity="1"><g transform="translate(274.016784, 141.904919)"><g><path d="M 5.1875 0 L 0 -13.1875 L 3.203125 -13.1875 L 6.796875 -3.234375 L 10.421875 -13.1875 L 13.484375 -13.1875 L 8.25 0 Z M 5.1875 0 "/></g></g></g><g fill="#031a5b" fill-opacity="1"><g transform="translate(288.467955, 141.904919)"><g><path d="M 0.15625 -10.671875 L 0.15625 -13.1875 L 11.171875 -13.1875 L 11.171875 -10.671875 L 7.140625 -10.671875 L 7.140625 0 L 4.171875 0 L 4.171875 -10.671875 Z M 0.15625 -10.671875 "/></g></g></g><g fill="#031a5b" fill-opacity="1"><g transform="translate(300.752494, 141.904919)"><g><path d="M 2.203125 -2.828125 C 2.628906 -2.828125 2.976562 -2.6875 3.25 -2.40625 C 3.519531 -2.132812 3.65625 -1.78125 3.65625 -1.34375 C 3.65625 -0.894531 3.519531 -0.53125 3.25 -0.25 C 2.976562 0.03125 2.628906 0.171875 2.203125 0.171875 C 1.785156 0.171875 1.4375 0.0234375 1.15625 -0.265625 C 0.882812 -0.554688 0.75 -0.914062 0.75 -1.34375 C 0.75 -1.78125 0.882812 -2.132812 1.15625 -2.40625 C 1.4375 -2.6875 1.785156 -2.828125 2.203125 -2.828125 Z M 2.203125 -2.828125 "/></g></g></g><g fill="#031a5b" fill-opacity="1"><g transform="translate(306.141451, 141.904919)"><g/></g></g><g fill="#031a5b" fill-opacity="1"><g transform="translate(312.189821, 141.904919)"><g><path d="M 1.453125 0 L 1.453125 -13.1875 L 4.421875 -13.1875 L 4.421875 -2.59375 L 10.078125 -2.59375 L 10.078125 0 Z M 1.453125 0 "/></g></g></g><g fill="#031a5b" fill-opacity="1"><g transform="translate(323.551178, 141.904919)"><g><path d="M 0.15625 -10.671875 L 0.15625 -13.1875 L 11.171875 -13.1875 L 11.171875 -10.671875 L 7.140625 -10.671875 L 7.140625 0 L 4.171875 0 L 4.171875 -10.671875 Z M 0.15625 -10.671875 "/></g></g></g><g fill="#031a5b" fill-opacity="1"><g transform="translate(335.835717, 141.904919)"><g><path d="M 7.046875 -13.1875 C 8.390625 -13.1875 9.585938 -12.90625 10.640625 -12.34375 C 11.703125 -11.789062 12.523438 -11.015625 13.109375 -10.015625 C 13.691406 -9.015625 13.984375 -7.875 13.984375 -6.59375 C 13.984375 -5.3125 13.679688 -4.171875 13.078125 -3.171875 C 12.484375 -2.171875 11.648438 -1.390625 10.578125 -0.828125 C 9.515625 -0.273438 8.300781 0 6.9375 0 L 1.453125 0 L 1.453125 -13.1875 Z M 7.125 -2.5 C 7.851562 -2.5 8.507812 -2.671875 9.09375 -3.015625 C 9.675781 -3.367188 10.128906 -3.851562 10.453125 -4.46875 C 10.785156 -5.082031 10.953125 -5.785156 10.953125 -6.578125 C 10.953125 -7.367188 10.773438 -8.078125 10.421875 -8.703125 C 10.078125 -9.328125 9.609375 -9.8125 9.015625 -10.15625 C 8.421875 -10.507812 7.742188 -10.6875 6.984375 -10.6875 L 4.421875 -10.6875 L 4.421875 -2.5 Z M 7.125 -2.5 "/></g></g></g><g fill="#031a5b" fill-opacity="1"><g transform="translate(351.285446, 141.904919)"><g><path d="M 2.203125 -2.828125 C 2.628906 -2.828125 2.976562 -2.6875 3.25 -2.40625 C 3.519531 -2.132812 3.65625 -1.78125 3.65625 -1.34375 C 3.65625 -0.894531 3.519531 -0.53125 3.25 -0.25 C 2.976562 0.03125 2.628906 0.171875 2.203125 0.171875 C 1.785156 0.171875 1.4375 0.0234375 1.15625 -0.265625 C 0.882812 -0.554688 0.75 -0.914062 0.75 -1.34375 C 0.75 -1.78125 0.882812 -2.132812 1.15625 -2.40625 C 1.4375 -2.6875 1.785156 -2.828125 2.203125 -2.828125 Z M 2.203125 -2.828125 "/></g></g></g><g clip-path="url(#d35587163d)"><path fill="#bd8807" d="M 278.644531 19.820312 C 289.410156 19.820312 298.167969 28.578125 298.167969 39.34375 C 298.167969 50.109375 289.410156 58.867188 278.644531 58.867188 C 267.878906 58.867188 259.121094 50.109375 259.121094 39.34375 C 259.121094 28.578125 267.878906 19.820312 278.644531 19.820312 M 278.644531 17.652344 C 266.664062 17.652344 256.953125 27.363281 256.953125 39.34375 C 256.953125 51.324219 266.664062 61.035156 278.644531 61.035156 C 290.625 61.035156 300.335938 51.324219 300.335938 39.34375 C 300.335938 27.363281 290.625 17.652344 278.644531 17.652344 Z M 278.644531 17.652344 " fill-opacity="1" fill-rule="nonzero"/></g><g clip-path="url(#a9c7902625)"><g clip-path="url(#eed31cbac0)"><path fill="url(#3f86f369df)" d="M 108.699219 17.425781 L 108.699219 104.195312 L 322.035156 104.195312 L 322.035156 17.425781 Z M 108.699219 17.425781 " fill-rule="nonzero"/></g></g><g clip-path="url(#6b10f1bbd9)"><path fill="#e4b548" d="M 122.988281 85 L 127.980469 82.207031 L 52.625 93.558594 L 130.582031 86.0625 C 130.582031 86.0625 122.949219 84.898438 122.988281 85 Z M 154.53125 97.085938 L 159.929688 92.160156 L 79.039062 104.347656 Z M 126.734375 71.828125 L 84.554688 78.183594 L 128.957031 73.914062 Z M 165.5 70.398438 L 158.390625 67.058594 L 137.542969 70.199219 L 142 72.660156 L 165.5 70.398438 " fill-opacity="1" fill-rule="nonzero"/></g><g clip-path="url(#a08bbc10de)"><path fill="#031a5b" d="M 225.710938 69.296875 C 225.15625 65.617188 207.527344 65.230469 186 68.359375 L 160.710938 60.96875 L 154.066406 63.566406 L 170.609375 71.339844 C 163.046875 73.109375 155.046875 75.308594 147.882812 77.410156 L 132.375 68.851562 L 126.421875 69.726562 L 137.847656 80.445312 C 130.085938 82.859375 124.8125 84.644531 124.8125 84.644531 C 124.8125 84.644531 149.628906 85.273438 170.992188 83.839844 L 146.914062 105.828125 L 157.539062 106.585938 L 198.78125 80.042969 C 214.839844 76.695312 226.167969 72.339844 225.710938 69.296875 " fill-opacity="1" fill-rule="nonzero"/></g><g fill="#bd8807" fill-opacity="1"><g transform="translate(152.336951, 167.011985)"><g><path d="M 5.546875 -1.359375 C 5.742188 -1.359375 5.910156 -1.285156 6.046875 -1.140625 C 6.191406 -1.003906 6.265625 -0.847656 6.265625 -0.671875 C 6.265625 -0.472656 6.191406 -0.3125 6.046875 -0.1875 C 5.910156 -0.0625 5.742188 0 5.546875 0 L 1.59375 0 C 1.394531 0 1.222656 -0.0664062 1.078125 -0.203125 C 0.941406 -0.335938 0.875 -0.507812 0.875 -0.71875 L 0.875 -7.515625 C 0.875 -7.722656 0.941406 -7.894531 1.078125 -8.03125 C 1.222656 -8.164062 1.394531 -8.234375 1.59375 -8.234375 L 5.546875 -8.234375 C 5.742188 -8.234375 5.910156 -8.164062 6.046875 -8.03125 C 6.191406 -7.90625 6.265625 -7.742188 6.265625 -7.546875 C 6.265625 -7.347656 6.195312 -7.1875 6.0625 -7.0625 C 5.925781 -6.945312 5.753906 -6.890625 5.546875 -6.890625 L 2.359375 -6.890625 L 2.359375 -4.875 L 5.015625 -4.875 C 5.210938 -4.875 5.378906 -4.8125 5.515625 -4.6875 C 5.660156 -4.5625 5.734375 -4.394531 5.734375 -4.1875 C 5.734375 -3.988281 5.664062 -3.828125 5.53125 -3.703125 C 5.394531 -3.585938 5.222656 -3.53125 5.015625 -3.53125 L 2.359375 -3.53125 L 2.359375 -1.359375 Z M 5.546875 -1.359375 "/></g></g></g><g fill="#bd8807" fill-opacity="1"><g transform="translate(160.720703, 167.011985)"><g><path d="M 3.53125 0.125 C 2.96875 0.125 2.460938 0.0507812 2.015625 -0.09375 C 1.578125 -0.238281 1.164062 -0.476562 0.78125 -0.8125 C 0.570312 -1 0.46875 -1.207031 0.46875 -1.4375 C 0.46875 -1.613281 0.535156 -1.769531 0.671875 -1.90625 C 0.804688 -2.050781 0.96875 -2.125 1.15625 -2.125 C 1.300781 -2.125 1.429688 -2.078125 1.546875 -1.984375 C 1.867188 -1.722656 2.175781 -1.53125 2.46875 -1.40625 C 2.769531 -1.289062 3.125 -1.234375 3.53125 -1.234375 C 3.96875 -1.234375 4.34375 -1.332031 4.65625 -1.53125 C 4.976562 -1.726562 5.140625 -1.972656 5.140625 -2.265625 C 5.140625 -2.609375 4.984375 -2.878906 4.671875 -3.078125 C 4.359375 -3.285156 3.859375 -3.441406 3.171875 -3.546875 C 1.453125 -3.796875 0.59375 -4.59375 0.59375 -5.9375 C 0.59375 -6.4375 0.722656 -6.867188 0.984375 -7.234375 C 1.242188 -7.597656 1.597656 -7.875 2.046875 -8.0625 C 2.492188 -8.257812 2.992188 -8.359375 3.546875 -8.359375 C 4.035156 -8.359375 4.5 -8.28125 4.9375 -8.125 C 5.375 -7.976562 5.738281 -7.785156 6.03125 -7.546875 C 6.25 -7.359375 6.359375 -7.148438 6.359375 -6.921875 C 6.359375 -6.734375 6.289062 -6.570312 6.15625 -6.4375 C 6.03125 -6.300781 5.875 -6.234375 5.6875 -6.234375 C 5.570312 -6.234375 5.46875 -6.269531 5.375 -6.34375 C 5.175781 -6.507812 4.894531 -6.660156 4.53125 -6.796875 C 4.164062 -6.929688 3.835938 -7 3.546875 -7 C 3.046875 -7 2.660156 -6.90625 2.390625 -6.71875 C 2.117188 -6.539062 1.984375 -6.300781 1.984375 -6 C 1.984375 -5.664062 2.125 -5.410156 2.40625 -5.234375 C 2.6875 -5.066406 3.125 -4.925781 3.71875 -4.8125 C 4.394531 -4.695312 4.929688 -4.546875 5.328125 -4.359375 C 5.734375 -4.171875 6.035156 -3.914062 6.234375 -3.59375 C 6.441406 -3.28125 6.546875 -2.863281 6.546875 -2.34375 C 6.546875 -1.84375 6.40625 -1.40625 6.125 -1.03125 C 5.851562 -0.664062 5.484375 -0.378906 5.015625 -0.171875 C 4.554688 0.0234375 4.0625 0.125 3.53125 0.125 Z M 3.53125 0.125 "/></g></g></g><g fill="#bd8807" fill-opacity="1"><g transform="translate(169.398402, 167.011985)"><g><path d="M 6.296875 -8.234375 C 6.503906 -8.234375 6.675781 -8.171875 6.8125 -8.046875 C 6.945312 -7.921875 7.015625 -7.753906 7.015625 -7.546875 C 7.015625 -7.347656 6.945312 -7.1875 6.8125 -7.0625 C 6.675781 -6.945312 6.503906 -6.890625 6.296875 -6.890625 L 4.453125 -6.890625 L 4.453125 -0.71875 C 4.453125 -0.507812 4.375 -0.335938 4.21875 -0.203125 C 4.070312 -0.0664062 3.890625 0 3.671875 0 C 3.453125 0 3.269531 -0.0664062 3.125 -0.203125 C 2.988281 -0.335938 2.921875 -0.507812 2.921875 -0.71875 L 2.921875 -6.890625 L 1.078125 -6.890625 C 0.859375 -6.890625 0.679688 -6.953125 0.546875 -7.078125 C 0.421875 -7.203125 0.359375 -7.363281 0.359375 -7.5625 C 0.359375 -7.757812 0.425781 -7.921875 0.5625 -8.046875 C 0.695312 -8.171875 0.867188 -8.234375 1.078125 -8.234375 Z M 6.296875 -8.234375 "/></g></g></g><g fill="#bd8807" fill-opacity="1"><g transform="translate(178.417072, 167.011985)"><g><path d="M 4.40625 -8.234375 C 5.144531 -8.234375 5.78125 -8.050781 6.3125 -7.6875 C 6.84375 -7.320312 7.242188 -6.828125 7.515625 -6.203125 C 7.796875 -5.578125 7.9375 -4.882812 7.9375 -4.125 C 7.9375 -3.351562 7.796875 -2.65625 7.515625 -2.03125 C 7.242188 -1.40625 6.84375 -0.910156 6.3125 -0.546875 C 5.78125 -0.179688 5.144531 0 4.40625 0 L 1.59375 0 C 1.394531 0 1.222656 -0.0664062 1.078125 -0.203125 C 0.941406 -0.335938 0.875 -0.507812 0.875 -0.71875 L 0.875 -7.515625 C 0.875 -7.722656 0.941406 -7.894531 1.078125 -8.03125 C 1.222656 -8.164062 1.394531 -8.234375 1.59375 -8.234375 Z M 4.296875 -1.359375 C 5.003906 -1.359375 5.53125 -1.617188 5.875 -2.140625 C 6.226562 -2.660156 6.40625 -3.320312 6.40625 -4.125 C 6.40625 -4.914062 6.226562 -5.570312 5.875 -6.09375 C 5.519531 -6.625 4.992188 -6.890625 4.296875 -6.890625 L 2.359375 -6.890625 L 2.359375 -1.359375 Z M 4.296875 -1.359375 "/></g></g></g><g fill="#bd8807" fill-opacity="1"><g transform="translate(188.482181, 167.011985)"><g/></g></g><g fill="#bd8807" fill-opacity="1"><g transform="translate(193.432694, 167.011985)"><g><path d="M 5.296875 -1.296875 C 5.484375 -1.296875 5.640625 -1.234375 5.765625 -1.109375 C 5.890625 -0.984375 5.953125 -0.828125 5.953125 -0.640625 C 5.953125 -0.453125 5.890625 -0.296875 5.765625 -0.171875 C 5.640625 -0.0546875 5.484375 0 5.296875 0 L 1.296875 0 C 1.085938 0 0.925781 -0.0625 0.8125 -0.1875 C 0.695312 -0.3125 0.640625 -0.472656 0.640625 -0.671875 C 0.640625 -0.867188 0.707031 -1.039062 0.84375 -1.1875 L 3.40625 -3.9375 C 3.695312 -4.25 3.925781 -4.5625 4.09375 -4.875 C 4.269531 -5.195312 4.359375 -5.488281 4.359375 -5.75 C 4.359375 -6.101562 4.226562 -6.410156 3.96875 -6.671875 C 3.71875 -6.929688 3.429688 -7.0625 3.109375 -7.0625 C 2.878906 -7.0625 2.648438 -6.984375 2.421875 -6.828125 C 2.191406 -6.671875 1.976562 -6.46875 1.78125 -6.21875 C 1.644531 -6.03125 1.46875 -5.9375 1.25 -5.9375 C 1.070312 -5.9375 0.910156 -6.003906 0.765625 -6.140625 C 0.617188 -6.273438 0.546875 -6.425781 0.546875 -6.59375 C 0.546875 -6.707031 0.582031 -6.820312 0.65625 -6.9375 C 0.738281 -7.0625 0.863281 -7.203125 1.03125 -7.359375 C 1.320312 -7.660156 1.660156 -7.898438 2.046875 -8.078125 C 2.441406 -8.265625 2.820312 -8.359375 3.1875 -8.359375 C 3.707031 -8.359375 4.160156 -8.242188 4.546875 -8.015625 C 4.941406 -7.796875 5.242188 -7.492188 5.453125 -7.109375 C 5.671875 -6.734375 5.78125 -6.300781 5.78125 -5.8125 C 5.78125 -5.332031 5.648438 -4.835938 5.390625 -4.328125 C 5.140625 -3.828125 4.796875 -3.34375 4.359375 -2.875 L 2.875 -1.296875 Z M 5.296875 -1.296875 "/></g></g></g><g fill="#bd8807" fill-opacity="1"><g transform="translate(201.39317, 167.011985)"><g><path d="M 3.609375 0.125 C 2.953125 0.125 2.382812 -0.0507812 1.90625 -0.40625 C 1.4375 -0.757812 1.078125 -1.253906 0.828125 -1.890625 C 0.585938 -2.535156 0.46875 -3.28125 0.46875 -4.125 C 0.46875 -4.957031 0.585938 -5.691406 0.828125 -6.328125 C 1.078125 -6.972656 1.4375 -7.472656 1.90625 -7.828125 C 2.382812 -8.179688 2.953125 -8.359375 3.609375 -8.359375 C 4.265625 -8.359375 4.832031 -8.179688 5.3125 -7.828125 C 5.789062 -7.472656 6.148438 -6.972656 6.390625 -6.328125 C 6.628906 -5.691406 6.75 -4.957031 6.75 -4.125 C 6.75 -3.28125 6.628906 -2.535156 6.390625 -1.890625 C 6.148438 -1.253906 5.789062 -0.757812 5.3125 -0.40625 C 4.832031 -0.0507812 4.265625 0.125 3.609375 0.125 Z M 3.609375 -1.296875 C 4.109375 -1.296875 4.5 -1.535156 4.78125 -2.015625 C 5.070312 -2.492188 5.21875 -3.195312 5.21875 -4.125 C 5.21875 -5.039062 5.070312 -5.738281 4.78125 -6.21875 C 4.5 -6.695312 4.109375 -6.9375 3.609375 -6.9375 C 3.109375 -6.9375 2.710938 -6.695312 2.421875 -6.21875 C 2.140625 -5.738281 2 -5.039062 2 -4.125 C 2 -3.195312 2.140625 -2.492188 2.421875 -2.015625 C 2.710938 -1.535156 3.109375 -1.296875 3.609375 -1.296875 Z M 3.609375 -1.296875 "/></g></g></g><g fill="#bd8807" fill-opacity="1"><g transform="translate(210.270745, 167.011985)"><g><path d="M 2.703125 -8.234375 C 2.898438 -8.234375 3.066406 -8.164062 3.203125 -8.03125 C 3.335938 -7.894531 3.40625 -7.722656 3.40625 -7.515625 L 3.40625 -0.71875 C 3.40625 -0.507812 3.328125 -0.335938 3.171875 -0.203125 C 3.023438 -0.0664062 2.84375 0 2.625 0 C 2.40625 0 2.222656 -0.0664062 2.078125 -0.203125 C 1.941406 -0.335938 1.875 -0.507812 1.875 -0.71875 L 1.875 -6.296875 L 1.140625 -5.84375 C 1.023438 -5.769531 0.898438 -5.734375 0.765625 -5.734375 C 0.566406 -5.734375 0.398438 -5.804688 0.265625 -5.953125 C 0.128906 -6.109375 0.0625 -6.273438 0.0625 -6.453125 C 0.0625 -6.578125 0.09375 -6.695312 0.15625 -6.8125 C 0.226562 -6.925781 0.316406 -7.015625 0.421875 -7.078125 L 2.203125 -8.125 C 2.335938 -8.195312 2.503906 -8.234375 2.703125 -8.234375 Z M 2.703125 -8.234375 "/></g></g></g><g fill="#bd8807" fill-opacity="1"><g transform="translate(216.208904, 167.011985)"><g><path d="M 3.21875 -8.390625 C 3.757812 -8.390625 4.238281 -8.238281 4.65625 -7.9375 C 5.082031 -7.632812 5.410156 -7.238281 5.640625 -6.75 C 5.867188 -6.257812 5.984375 -5.734375 5.984375 -5.171875 C 5.984375 -4.597656 5.878906 -3.96875 5.671875 -3.28125 C 5.472656 -2.601562 5.109375 -1.957031 4.578125 -1.34375 C 4.046875 -0.726562 3.328125 -0.289062 2.421875 -0.03125 C 2.328125 -0.0078125 2.238281 0 2.15625 0 C 1.945312 0 1.773438 -0.0507812 1.640625 -0.15625 C 1.515625 -0.257812 1.453125 -0.425781 1.453125 -0.65625 C 1.453125 -0.832031 1.503906 -0.984375 1.609375 -1.109375 C 1.722656 -1.242188 1.878906 -1.335938 2.078125 -1.390625 C 2.566406 -1.523438 3.019531 -1.773438 3.4375 -2.140625 C 3.863281 -2.503906 4.171875 -2.9375 4.359375 -3.4375 C 3.972656 -3.09375 3.53125 -2.921875 3.03125 -2.921875 C 2.613281 -2.921875 2.207031 -3.046875 1.8125 -3.296875 C 1.414062 -3.546875 1.09375 -3.878906 0.84375 -4.296875 C 0.59375 -4.722656 0.46875 -5.175781 0.46875 -5.65625 C 0.46875 -6.15625 0.59375 -6.613281 0.84375 -7.03125 C 1.09375 -7.445312 1.421875 -7.773438 1.828125 -8.015625 C 2.242188 -8.265625 2.707031 -8.390625 3.21875 -8.390625 Z M 3.21875 -4.21875 C 3.59375 -4.21875 3.90625 -4.351562 4.15625 -4.625 C 4.414062 -4.90625 4.546875 -5.25 4.546875 -5.65625 C 4.546875 -6.0625 4.414062 -6.398438 4.15625 -6.671875 C 3.90625 -6.953125 3.59375 -7.09375 3.21875 -7.09375 C 2.84375 -7.09375 2.523438 -6.953125 2.265625 -6.671875 C 2.003906 -6.398438 1.875 -6.0625 1.875 -5.65625 C 1.875 -5.25 2.003906 -4.90625 2.265625 -4.625 C 2.523438 -4.351562 2.84375 -4.21875 3.21875 -4.21875 Z M 3.21875 -4.21875 "/></g></g></g></svg>